<?xml version="1.0" encoding="UTF-8"?>
<svg version="1.1" xmlns="http://www.w3.org/2000/svg" width="512" height="509">
<path d="M0 0 C0.75830046 -0.00407553 1.51660091 -0.00815105 2.29788017 -0.01235008 C6.32496736 -0.03314367 10.35202133 -0.04746474 14.37915039 -0.05688477 C17.65961694 -0.0656731 20.93964999 -0.08638459 24.2199707 -0.1184082 C42.92707343 -0.29684232 60.97788941 -0.22938449 79.27734375 4.23828125 C80.30914261 4.48673294 80.30914261 4.48673294 81.36178589 4.74020386 C85.35880042 5.72832799 89.28820054 6.87764358 93.21484375 8.11328125 C94.34962158 8.46132812 95.48439941 8.809375 96.65356445 9.16796875 C110.46787581 13.45887468 123.53050033 18.50566304 136.34667969 25.23242188 C138.18087229 26.18802045 140.02687355 27.11472749 141.87890625 28.03515625 C149.82932853 32.05047724 157.28430699 36.70452152 164.71484375 41.61328125 C166.12963013 42.54261475 166.12963013 42.54261475 167.57299805 43.49072266 C168.44351807 44.07515137 169.31403809 44.65958008 170.2109375 45.26171875 C170.99525146 45.78685059 171.77956543 46.31198242 172.58764648 46.85302734 C173.14524658 47.31016113 173.70284668 47.76729492 174.27734375 48.23828125 C174.27734375 48.89828125 174.27734375 49.55828125 174.27734375 50.23828125 C175.128125 50.62693359 175.128125 50.62693359 175.99609375 51.0234375 C178.49615607 52.3548063 180.56246907 53.91222521 182.77734375 55.67578125 C185.0122307 57.44761799 187.22209779 59.19959016 189.55859375 60.8359375 C190.409375 61.53009766 190.409375 61.53009766 191.27734375 62.23828125 C191.27734375 62.89828125 191.27734375 63.55828125 191.27734375 64.23828125 C192.16135864 64.63442627 192.16135864 64.63442627 193.06323242 65.03857422 C195.36181524 66.28405177 196.86673892 67.58380339 198.703125 69.43359375 C199.33130127 70.06281738 199.95947754 70.69204102 200.60668945 71.34033203 C201.26113037 72.00790527 201.91557129 72.67547852 202.58984375 73.36328125 C203.2655542 74.0476123 203.94126465 74.73194336 204.63745117 75.43701172 C240.55397017 112.00196902 263.83237769 159.08017822 273.27734375 209.23828125 C273.52726074 210.50260986 273.52726074 210.50260986 273.78222656 211.79248047 C279.43829599 241.44878652 278.260123 274.75699351 272.27734375 304.23828125 C272.0954248 305.16463379 271.91350586 306.09098633 271.72607422 307.04541016 C264.27947591 344.01221408 248.14931523 377.72452336 226.27734375 408.23828125 C225.6328125 409.15222656 224.98828125 410.06617188 224.32421875 411.0078125 C223.034355 412.79546348 221.66743145 414.52740408 220.27734375 416.23828125 C219.61734375 416.23828125 218.95734375 416.23828125 218.27734375 416.23828125 C217.81328125 417.16640625 217.81328125 417.16640625 217.33984375 418.11328125 C216.65234375 419.48828125 215.96484375 420.86328125 215.27734375 422.23828125 C214.61734375 422.23828125 213.95734375 422.23828125 213.27734375 422.23828125 C212.91854126 423.08386597 212.91854126 423.08386597 212.55249023 423.9465332 C211.00226406 426.73266628 209.12693647 428.6479579 206.875 430.90625 C205.98361328 431.80021484 205.09222656 432.69417969 204.17382812 433.61523438 C203.23861328 434.54271484 202.30339844 435.47019531 201.33984375 436.42578125 C200.43943359 437.33392578 199.53902344 438.24207031 198.61132812 439.17773438 C192.47888545 445.29266829 186.09130413 450.89591791 179.27734375 456.23828125 C178.6237085 456.75124756 177.97007324 457.26421387 177.29663086 457.79272461 C167.44129888 465.39659323 157.00699129 471.94885859 146.27734375 478.23828125 C145.34921875 478.79 144.42109375 479.34171875 143.46484375 479.91015625 C129.64579065 487.79410321 114.48205692 494.54388614 99.27734375 499.23828125 C98.12758057 499.5933374 98.12758057 499.5933374 96.95458984 499.95556641 C72.89691083 507.25656106 49.22745002 509.9421327 24.15844727 509.81469727 C21.3675923 509.80097042 18.57810733 509.80786235 15.78735352 509.83520508 C-43.8087088 510.41637105 -95.74397979 488.79569675 -142.72265625 453.23828125 C-143.73199219 452.48160156 -144.74132812 451.72492188 -145.78125 450.9453125 C-146.42191406 450.38199219 -147.06257813 449.81867188 -147.72265625 449.23828125 C-147.72265625 448.57828125 -147.72265625 447.91828125 -147.72265625 447.23828125 C-148.283479 447.00270508 -148.84430176 446.76712891 -149.42211914 446.52441406 C-152.27234882 444.93097143 -154.22753891 442.97531296 -156.53125 440.66015625 C-157.44326172 439.74621094 -158.35527344 438.83226562 -159.29492188 437.890625 C-159.76583252 437.41351074 -160.23674316 436.93639648 -160.72192383 436.44482422 C-162.14685898 435.00174781 -163.57951728 433.56672064 -165.01367188 432.1328125 C-177.72265625 419.34310769 -177.72265625 419.34310769 -177.72265625 416.23828125 C-178.38265625 416.23828125 -179.04265625 416.23828125 -179.72265625 416.23828125 C-181.50197538 414.06659943 -183.15472528 411.89355185 -184.78515625 409.61328125 C-185.52270142 408.5910144 -185.52270142 408.5910144 -186.27514648 407.5480957 C-209.45938051 375.14264653 -225.26010619 339.45282483 -232.72265625 300.23828125 C-232.96822266 299.01842529 -232.96822266 299.01842529 -233.21875 297.77392578 C-239.01113678 267.8964597 -237.80193853 233.94544288 -231.72265625 204.23828125 C-231.53541992 203.29742676 -231.34818359 202.35657227 -231.15527344 201.38720703 C-224.13688542 167.00437867 -209.54484016 133.29202928 -188.7265625 105.00390625 C-186.75855213 102.4456204 -186.75855213 102.4456204 -185.72265625 100.23828125 C-185.06265625 100.23828125 -184.40265625 100.23828125 -183.72265625 100.23828125 C-183.48675781 99.52027344 -183.25085938 98.80226563 -183.0078125 98.0625 C-181.51052296 94.77210383 -179.63485099 92.67642045 -177.16015625 90.05078125 C-174.08079827 86.89639188 -174.08079827 86.89639188 -171.72265625 83.23828125 C-171.06265625 83.23828125 -170.40265625 83.23828125 -169.72265625 83.23828125 C-169.45855957 82.64893799 -169.19446289 82.05959473 -168.92236328 81.45239258 C-167.67688573 79.15380976 -166.37713411 77.64888608 -164.52734375 75.8125 C-163.89812012 75.18432373 -163.26889648 74.55614746 -162.62060547 73.90893555 C-161.95303223 73.25449463 -161.28545898 72.60005371 -160.59765625 71.92578125 C-159.9133252 71.2500708 -159.22899414 70.57436035 -158.52392578 69.87817383 C-146.32603744 57.89660129 -132.89606545 47.75853346 -118.72265625 38.23828125 C-117.83191406 37.63242187 -116.94117187 37.0265625 -116.0234375 36.40234375 C-108.27302631 31.28174323 -100.09104512 27.22828803 -91.72265625 23.23828125 C-90.97371094 22.87444336 -90.22476563 22.51060547 -89.453125 22.13574219 C-61.393319 8.56564273 -31.21809296 0.14304549 0 0 Z " fill="#FEFEFE" transform="translate(235.72265625,-0.23828125)"/>
<path d="M0 0 C0.81348036 -0.00508782 1.62696072 -0.01017564 2.465092 -0.01541764 C5.20644732 -0.03118487 7.94777619 -0.03967844 10.68916321 -0.04811096 C12.6485206 -0.05764601 14.60787629 -0.06753701 16.56723022 -0.07775879 C23.01581311 -0.10918524 29.46440906 -0.12941568 35.91304016 -0.14796448 C37.55763352 -0.15291046 37.55763352 -0.15291046 39.23545098 -0.15795636 C49.57218371 -0.1887397 59.90891928 -0.21545278 70.24568462 -0.23237514 C83.47622554 -0.25428713 96.70636088 -0.2962637 109.93673962 -0.36581272 C119.23447473 -0.41303208 128.53210032 -0.43730601 137.82995158 -0.44457203 C143.38538241 -0.44953158 148.94035646 -0.4646415 154.49565697 -0.50431633 C159.72343074 -0.54115906 164.95048642 -0.54959993 170.17836571 -0.5363102 C172.09601208 -0.53636418 174.01369007 -0.54667678 175.93121719 -0.56806183 C178.55258606 -0.59573086 181.1713338 -0.5862421 183.79272461 -0.56762695 C184.9273779 -0.59281935 184.9273779 -0.59281935 186.08495349 -0.61852068 C191.37289815 -0.52487255 194.04261994 1.07905894 197.88096935 4.67841953 C201.12993162 8.29145631 200.38458174 12.53830841 200.4066925 17.12644958 C200.41895874 18.52228523 200.41895874 18.52228523 200.43147278 19.94631958 C200.4563876 23.04379133 200.47287541 26.14121641 200.48725891 29.23875427 C200.49258259 30.30168449 200.49790627 31.36461472 200.50339127 32.45975494 C200.53017336 38.10662108 200.54951549 43.75346493 200.56391907 49.40037537 C200.57715338 54.03827604 200.60480135 58.67572571 200.64595032 63.3134613 C200.69584415 68.93743404 200.72011143 74.56100377 200.72714615 80.18518829 C200.73377786 82.31060429 200.74878257 84.43601423 200.77303696 86.56130219 C200.99682774 107.39223302 197.73617671 126.50753068 188.21382141 145.16062927 C187.68014954 146.21379333 187.14647766 147.2669574 186.59663391 148.35203552 C182.15477194 156.50253345 176.41445687 163.31854877 170.21382141 170.16062927 C169.54479797 170.91344177 168.87577454 171.66625427 168.18647766 172.44187927 C149.55637131 192.29298625 120.53854782 202.65701498 93.8405304 203.56541443 C64.49308794 203.94919088 36.74724981 192.21379607 15.58882141 171.91062927 C1.78368849 157.45760203 -8.11668428 140.67188198 -12.78617859 121.16062927 C-13.15399193 119.71957321 -13.15399193 119.71957321 -13.52923584 118.24940491 C-16.18952364 106.68045482 -16.27754004 95.33429207 -16.29008484 83.50437927 C-16.29974628 81.34540109 -16.30984021 79.18642481 -16.32034302 77.02745056 C-16.33818417 72.53273456 -16.34387543 68.03819062 -16.34208679 63.54344177 C-16.34178012 57.7922443 -16.3829783 52.04214291 -16.43440342 46.29120636 C-16.46776451 41.84559563 -16.4738448 37.4002519 -16.47225761 32.95452881 C-16.4757885 30.8334673 -16.48900637 28.71239821 -16.51225471 26.59146118 C-16.5417068 23.63130562 -16.53301171 20.67355935 -16.51493835 17.71336365 C-16.53179687 16.84572388 -16.5486554 15.97808411 -16.56602478 15.08415222 C-16.47865218 9.4423787 -15.17278406 6.54175117 -11.26837063 2.4536972 C-7.86722341 -0.51347189 -4.27974024 0.00657848 0 0 Z " fill="#FEFEFE" transform="translate(163.7861785888672,226.83937072753906)"/>
<path d="M0 0 C18.99492629 16.38531951 30.90571757 37.26821291 32.95703125 62.55078125 C33.20595558 66.2573865 33.37557664 69.96370314 33.51953125 73.67578125 C33.56198975 74.75585449 33.60444824 75.83592773 33.64819336 76.94873047 C34.22611014 93.80715598 34.04152786 110.68525782 33.95703125 127.55078125 C34.94521851 127.50945068 34.94521851 127.50945068 35.95336914 127.46728516 C41.04079062 127.34325857 44.85939507 127.34916857 49.39453125 129.92578125 C50.19761719 130.36664063 51.00070312 130.8075 51.828125 131.26171875 C53.56543555 132.31366826 55.26716072 133.42420089 56.95703125 134.55078125 C56.95703125 135.21078125 56.95703125 135.87078125 56.95703125 136.55078125 C57.61703125 136.55078125 58.27703125 136.55078125 58.95703125 136.55078125 C60.39453125 138.4921875 60.39453125 138.4921875 61.95703125 141.11328125 C62.47265625 141.96019531 62.98828125 142.80710938 63.51953125 143.6796875 C66.66413396 149.9603478 67.25244237 155.76531818 67.23168945 162.64111328 C67.23680038 163.52523895 67.24191132 164.40936462 67.24717712 165.32028198 C67.26103156 168.23312231 67.26011729 171.14572443 67.2578125 174.05859375 C67.26170601 176.10578497 67.26604202 178.15297539 67.27079773 180.20016479 C67.27825428 184.49561168 67.27797589 188.79097642 67.27270508 193.08642578 C67.26695756 198.53124233 67.28372901 203.97571345 67.30704975 209.4204731 C67.32196031 213.65560806 67.3226348 217.89066358 67.31954002 222.12582016 C67.32004614 224.12921702 67.32514682 226.13261921 67.33535194 228.13599014 C67.5118099 267.67214403 57.09526423 301.68713668 29.20703125 330.61328125 C2.645338 356.43941992 -30.20930783 366.23582211 -66.6953125 365.734375 C-99.71111095 364.95985314 -129.47513786 348.9464828 -152.3125 325.59375 C-164.15044579 312.74581239 -172.75295848 297.09532799 -178.32998753 280.63327312 C-178.79646959 279.27076163 -179.27605595 277.91264903 -179.77016354 276.55991077 C-181.78565362 270.88550873 -182.92406684 265.34647185 -183.70336914 259.38354492 C-183.89275983 257.95318169 -183.89275983 257.95318169 -184.0859766 256.49392223 C-185.36584591 246.07296936 -185.49755436 235.71254786 -185.4765625 225.2265625 C-185.48114223 223.17685273 -185.48645299 221.12714448 -185.4924469 219.07743835 C-185.5012787 214.82963727 -185.49906375 210.58202528 -185.48901367 206.33422852 C-185.4774377 200.91677403 -185.49791738 195.49996311 -185.52693081 190.08259296 C-185.54533083 185.86931804 -185.54499442 181.65619711 -185.53929329 177.44289207 C-185.53914107 175.44518304 -185.54510231 173.44746291 -185.55758476 171.44979286 C-185.62912458 158.15018314 -185.64579039 146.44703812 -175.90625 136.26953125 C-170.1028261 130.91626811 -164.90598545 127.43639711 -156.875 127.5078125 C-155.51918823 127.51711792 -155.51918823 127.51711792 -154.13598633 127.52661133 C-153.44529053 127.5345874 -152.75459473 127.54256348 -152.04296875 127.55078125 C-152.04740997 126.80068787 -152.0518512 126.05059448 -152.056427 125.277771 C-152.09674125 118.15890761 -152.12707267 111.04008472 -152.14659309 103.92113876 C-152.15696656 100.26247989 -152.17100582 96.60391647 -152.19384766 92.9453125 C-152.21580862 89.40506318 -152.22758557 85.86490484 -152.23272324 82.32459259 C-152.23813877 80.3374379 -152.25371309 78.35031908 -152.26956177 76.36322021 C-152.27290087 48.94562616 -141.88997817 25.95828712 -123.23046875 6.30078125 C-89.3801523 -26.28212866 -36.38038058 -30.1157565 0 0 Z M-166.04296875 151.55078125 C-167.73880125 154.94244626 -167.19939129 158.80420906 -167.20410156 162.53588867 C-167.20906647 163.46793625 -167.21403137 164.39998383 -167.21914673 165.36027527 C-167.23380507 168.45894096 -167.24058068 171.55755525 -167.24609375 174.65625 C-167.25184746 176.81464133 -167.25760517 178.97303264 -167.2633667 181.13142395 C-167.2738907 185.6702193 -167.27972247 190.20899689 -167.28320312 194.74780273 C-167.28865443 200.52850481 -167.31260383 206.30896734 -167.34117508 212.08959484 C-167.35993089 216.55695748 -167.36501416 221.02426431 -167.366539 225.49166298 C-167.36954302 227.62004196 -167.37749426 229.7484205 -167.39072418 231.87676048 C-167.45971329 243.84124332 -167.04117242 254.9257353 -164.04296875 266.55078125 C-163.85622589 267.32990372 -163.66948303 268.10902618 -163.4770813 268.91175842 C-159.68385117 283.99827619 -152.42531024 297.97047728 -142.04296875 309.55078125 C-141.31078125 310.4015625 -140.57859375 311.25234375 -139.82421875 312.12890625 C-124.819615 329.29170643 -104.48491761 341.77303502 -82.04296875 346.55078125 C-81.17285156 346.75445312 -80.30273438 346.958125 -79.40625 347.16796875 C-51.54695794 352.84085109 -22.47210429 345.8742401 1.1015625 330.546875 C23.00254767 315.2371576 39.43860796 293.70929611 45.95703125 267.55078125 C46.20224014 266.59966461 46.44744904 265.64854797 46.7000885 264.66860962 C49.3771324 253.02101727 49.44844202 241.58529575 49.4609375 229.67578125 C49.4705986 227.49438284 49.48069251 225.31298631 49.49119568 223.1315918 C49.50903853 218.58979783 49.51472792 214.04817414 49.51293945 209.50634766 C49.51263279 203.69462069 49.55382872 197.88397851 49.60525608 192.07250977 C49.6386159 187.58057642 49.64469749 183.08890733 49.64311028 178.59686279 C49.64664144 176.453473 49.65986088 174.31007572 49.68310738 172.16680908 C49.71255628 169.17552855 49.70386541 166.18663268 49.68579102 163.1953125 C49.70264954 162.31832199 49.71950806 161.44133148 49.73687744 160.5377655 C49.64998997 154.8692183 48.36732157 151.94730181 44.43922329 147.84062195 C41.03557085 144.8786782 37.449992 145.39672953 33.17085266 145.39015198 C31.95063212 145.38252025 31.95063212 145.38252025 30.70576066 145.37473434 C27.96440534 145.3589671 25.22307647 145.35047354 22.48168945 145.34204102 C20.52233206 145.33250597 18.56297637 145.32261497 16.60362244 145.31239319 C10.15503955 145.28096674 3.7064436 145.2607363 -2.7421875 145.2421875 C-3.83858307 145.23889018 -4.93497864 145.23559286 -6.06459832 145.23219562 C-16.40133105 145.20141228 -26.73806662 145.1746992 -37.07483196 145.15777683 C-50.30537288 145.13586484 -63.53550822 145.09388827 -76.76588696 145.02433926 C-86.06362206 144.97711989 -95.36124766 144.95284596 -104.65909892 144.94557995 C-110.21452975 144.9406204 -115.7695038 144.92551048 -121.32480431 144.88583565 C-126.55257808 144.84899292 -131.77963376 144.84055205 -137.00751305 144.85384178 C-138.92515942 144.85378779 -140.84283741 144.8434752 -142.76036453 144.82209015 C-145.3817334 144.79442112 -148.00048114 144.80390988 -150.62187195 144.82252502 C-151.37830748 144.8057301 -152.13474301 144.78893517 -152.91410083 144.7716313 C-158.83483319 144.87648593 -162.1209503 147.18926649 -166.04296875 151.55078125 Z " fill="#334B5B" transform="translate(315.04296875,81.44921875)"/>
<path d="M0 0 C0.75830046 -0.00407553 1.51660091 -0.00815105 2.29788017 -0.01235008 C6.32496736 -0.03314367 10.35202133 -0.04746474 14.37915039 -0.05688477 C17.65961694 -0.0656731 20.93964999 -0.08638459 24.2199707 -0.1184082 C42.92707343 -0.29684232 60.97788941 -0.22938449 79.27734375 4.23828125 C80.30914261 4.48673294 80.30914261 4.48673294 81.36178589 4.74020386 C85.35880042 5.72832799 89.28820054 6.87764358 93.21484375 8.11328125 C94.34962158 8.46132812 95.48439941 8.809375 96.65356445 9.16796875 C110.46787581 13.45887468 123.53050033 18.50566304 136.34667969 25.23242188 C138.18087229 26.18802045 140.02687355 27.11472749 141.87890625 28.03515625 C149.82932853 32.05047724 157.28430699 36.70452152 164.71484375 41.61328125 C166.12963013 42.54261475 166.12963013 42.54261475 167.57299805 43.49072266 C168.44351807 44.07515137 169.31403809 44.65958008 170.2109375 45.26171875 C170.99525146 45.78685059 171.77956543 46.31198242 172.58764648 46.85302734 C173.14524658 47.31016113 173.70284668 47.76729492 174.27734375 48.23828125 C174.27734375 48.89828125 174.27734375 49.55828125 174.27734375 50.23828125 C175.128125 50.62693359 175.128125 50.62693359 175.99609375 51.0234375 C178.49615607 52.3548063 180.56246907 53.91222521 182.77734375 55.67578125 C185.0122307 57.44761799 187.22209779 59.19959016 189.55859375 60.8359375 C190.409375 61.53009766 190.409375 61.53009766 191.27734375 62.23828125 C191.27734375 62.89828125 191.27734375 63.55828125 191.27734375 64.23828125 C192.16135864 64.63442627 192.16135864 64.63442627 193.06323242 65.03857422 C195.36181524 66.28405177 196.86673892 67.58380339 198.703125 69.43359375 C199.33130127 70.06281738 199.95947754 70.69204102 200.60668945 71.34033203 C201.26113037 72.00790527 201.91557129 72.67547852 202.58984375 73.36328125 C203.2655542 74.0476123 203.94126465 74.73194336 204.63745117 75.43701172 C240.55397017 112.00196902 263.83237769 159.08017822 273.27734375 209.23828125 C273.52726074 210.50260986 273.52726074 210.50260986 273.78222656 211.79248047 C279.43829599 241.44878652 278.260123 274.75699351 272.27734375 304.23828125 C272.0954248 305.16463379 271.91350586 306.09098633 271.72607422 307.04541016 C264.27947591 344.01221408 248.14931523 377.72452336 226.27734375 408.23828125 C225.6328125 409.15222656 224.98828125 410.06617188 224.32421875 411.0078125 C223.034355 412.79546348 221.66743145 414.52740408 220.27734375 416.23828125 C219.61734375 416.23828125 218.95734375 416.23828125 218.27734375 416.23828125 C217.81328125 417.16640625 217.81328125 417.16640625 217.33984375 418.11328125 C216.65234375 419.48828125 215.96484375 420.86328125 215.27734375 422.23828125 C214.61734375 422.23828125 213.95734375 422.23828125 213.27734375 422.23828125 C212.91854126 423.08386597 212.91854126 423.08386597 212.55249023 423.9465332 C211.00226406 426.73266628 209.12693647 428.6479579 206.875 430.90625 C205.98361328 431.80021484 205.09222656 432.69417969 204.17382812 433.61523438 C203.23861328 434.54271484 202.30339844 435.47019531 201.33984375 436.42578125 C200.43943359 437.33392578 199.53902344 438.24207031 198.61132812 439.17773438 C192.47888545 445.29266829 186.09130413 450.89591791 179.27734375 456.23828125 C178.6237085 456.75124756 177.97007324 457.26421387 177.29663086 457.79272461 C167.44129888 465.39659323 157.00699129 471.94885859 146.27734375 478.23828125 C145.34921875 478.79 144.42109375 479.34171875 143.46484375 479.91015625 C129.64579065 487.79410321 114.48205692 494.54388614 99.27734375 499.23828125 C98.12758057 499.5933374 98.12758057 499.5933374 96.95458984 499.95556641 C72.89691083 507.25656106 49.22745002 509.9421327 24.15844727 509.81469727 C21.3675923 509.80097042 18.57810733 509.80786235 15.78735352 509.83520508 C-43.8087088 510.41637105 -95.74397979 488.79569675 -142.72265625 453.23828125 C-143.73199219 452.48160156 -144.74132812 451.72492188 -145.78125 450.9453125 C-146.42191406 450.38199219 -147.06257813 449.81867188 -147.72265625 449.23828125 C-147.72265625 448.57828125 -147.72265625 447.91828125 -147.72265625 447.23828125 C-148.283479 447.00270508 -148.84430176 446.76712891 -149.42211914 446.52441406 C-152.27234882 444.93097143 -154.22753891 442.97531296 -156.53125 440.66015625 C-157.44326172 439.74621094 -158.35527344 438.83226562 -159.29492188 437.890625 C-159.76583252 437.41351074 -160.23674316 436.93639648 -160.72192383 436.44482422 C-162.14685898 435.00174781 -163.57951728 433.56672064 -165.01367188 432.1328125 C-177.72265625 419.34310769 -177.72265625 419.34310769 -177.72265625 416.23828125 C-178.38265625 416.23828125 -179.04265625 416.23828125 -179.72265625 416.23828125 C-181.50197538 414.06659943 -183.15472528 411.89355185 -184.78515625 409.61328125 C-185.52270142 408.5910144 -185.52270142 408.5910144 -186.27514648 407.5480957 C-209.45938051 375.14264653 -225.26010619 339.45282483 -232.72265625 300.23828125 C-232.96822266 299.01842529 -232.96822266 299.01842529 -233.21875 297.77392578 C-239.01113678 267.8964597 -237.80193853 233.94544288 -231.72265625 204.23828125 C-231.53541992 203.29742676 -231.34818359 202.35657227 -231.15527344 201.38720703 C-224.13688542 167.00437867 -209.54484016 133.29202928 -188.7265625 105.00390625 C-186.75855213 102.4456204 -186.75855213 102.4456204 -185.72265625 100.23828125 C-185.06265625 100.23828125 -184.40265625 100.23828125 -183.72265625 100.23828125 C-183.48675781 99.52027344 -183.25085938 98.80226563 -183.0078125 98.0625 C-181.51052296 94.77210383 -179.63485099 92.67642045 -177.16015625 90.05078125 C-174.08079827 86.89639188 -174.08079827 86.89639188 -171.72265625 83.23828125 C-171.06265625 83.23828125 -170.40265625 83.23828125 -169.72265625 83.23828125 C-169.45855957 82.64893799 -169.19446289 82.05959473 -168.92236328 81.45239258 C-167.67688573 79.15380976 -166.37713411 77.64888608 -164.52734375 75.8125 C-163.89812012 75.18432373 -163.26889648 74.55614746 -162.62060547 73.90893555 C-161.95303223 73.25449463 -161.28545898 72.60005371 -160.59765625 71.92578125 C-159.9133252 71.2500708 -159.22899414 70.57436035 -158.52392578 69.87817383 C-146.32603744 57.89660129 -132.89606545 47.75853346 -118.72265625 38.23828125 C-117.83191406 37.63242187 -116.94117187 37.0265625 -116.0234375 36.40234375 C-108.27302631 31.28174323 -100.09104512 27.22828803 -91.72265625 23.23828125 C-90.97371094 22.87444336 -90.22476563 22.51060547 -89.453125 22.13574219 C-61.393319 8.56564273 -31.21809296 0.14304549 0 0 Z M-23.72265625 18.23828125 C-24.4295459 18.38813477 -25.13643555 18.53798828 -25.86474609 18.69238281 C-29.86288098 19.57296337 -33.80825668 20.59069754 -37.75097656 21.69677734 C-39.80456613 22.26077705 -41.86631447 22.77767295 -43.93359375 23.2890625 C-84.56742898 33.5803042 -119.71884856 56.57429177 -149.72265625 85.23828125 C-150.52058594 85.98335938 -151.31851563 86.7284375 -152.140625 87.49609375 C-158.22394134 93.33177067 -163.32133985 99.82468404 -168.41015625 106.52001953 C-169.60345927 108.08223432 -170.81817441 109.62803487 -172.03515625 111.171875 C-178.68676656 119.73582327 -184.26233434 128.88311109 -189.72265625 138.23828125 C-190.09277832 138.86573242 -190.46290039 139.49318359 -190.84423828 140.13964844 C-203.96616764 162.60794496 -212.80096712 189.21354816 -216.39038086 214.95532227 C-216.64199044 216.68405198 -216.92745525 218.40789792 -217.22875977 220.12866211 C-218.95521943 230.61573283 -219.0783558 240.9447587 -219.03515625 251.55078125 C-219.03333344 252.47725464 -219.03151062 253.40372803 -219.02963257 254.35827637 C-218.92585999 285.72801684 -214.38491037 316.31538444 -201.72265625 345.23828125 C-201.16308019 346.57641256 -200.60455031 347.91498167 -200.046875 349.25390625 C-184.71801416 385.51875313 -159.37712799 419.52862436 -127.72265625 443.23828125 C-127.09343262 443.7168457 -126.46420898 444.19541016 -125.81591797 444.68847656 C-83.99859349 476.3703331 -34.83854963 493.76161786 17.71484375 493.55078125 C19.09556564 493.54854553 19.09556564 493.54854553 20.50418091 493.54626465 C35.28874036 493.50333052 49.68515011 492.79232797 64.27734375 490.23828125 C65.11620117 490.0990625 65.95505859 489.95984375 66.81933594 489.81640625 C79.47275186 487.66517615 91.30114493 483.78793756 103.27734375 479.23828125 C104.10911133 478.92874512 104.94087891 478.61920898 105.79785156 478.30029297 C124.22173101 471.41723448 141.26689774 462.67491522 157.27734375 451.23828125 C157.92268066 450.78227539 158.56801758 450.32626953 159.23291016 449.85644531 C169.69241548 442.42072965 179.09911771 434.19283623 188.27734375 425.23828125 C188.82938477 424.7067041 189.38142578 424.17512695 189.95019531 423.62744141 C214.33509531 400.13395316 231.36089419 371.29110246 244.27734375 340.23828125 C244.74527344 339.24570312 245.21320313 338.253125 245.6953125 337.23046875 C248.21094511 331.35796043 249.6510275 325.08865892 251.27734375 318.92578125 C251.45476105 318.25831879 251.63217834 317.59085632 251.81497192 316.90316772 C254.5869582 306.4321093 256.99077423 296.00931366 258.27734375 285.23828125 C258.36943115 284.47862061 258.46151855 283.71895996 258.55639648 282.9362793 C259.50110306 274.11762334 259.47787212 265.283517 259.46484375 256.42578125 C259.46390717 255.60503113 259.46297058 254.78428101 259.46200562 253.93865967 C259.30177011 189.08195849 234.81737524 132.02284976 190.27734375 85.23828125 C189.59285156 84.51253906 188.90835937 83.78679687 188.203125 83.0390625 C182.95207414 77.61759214 177.16842901 72.94285215 171.27734375 68.23828125 C170.48585938 67.57957031 169.694375 66.92085937 168.87890625 66.2421875 C135.1647556 38.40841196 92.4164408 21.59625935 49.27734375 16.23828125 C48.25543945 16.09688721 48.25543945 16.09688721 47.21289062 15.95263672 C38.03538149 14.83445285 28.75806997 14.99530183 19.52734375 14.98828125 C18.15390305 14.98677063 18.15390305 14.98677063 16.75271606 14.98522949 C3.07322996 14.99541292 -10.29224468 15.38894971 -23.72265625 18.23828125 Z " fill="#028351" transform="translate(235.72265625,-0.23828125)"/>
<path d="M0 0 C1.3303125 0.86625 1.3303125 0.86625 2.6875 1.75 C11.01551093 9.85292955 17.12372203 20.97277171 17.56762695 32.68652344 C17.56639848 35.07761992 17.53962736 37.46882956 17.48828125 39.859375 C17.48324585 40.98746582 17.47821045 42.11555664 17.47302246 43.27783203 C17.44713857 47.4354851 17.37733477 51.5927719 17.3125 55.75 C17.209375 65.0725 17.10625 74.395 17 84 C-11.38 84 -39.76 84 -69 84 C-69.0825 73.97625 -69.165 63.9525 -69.25 53.625 C-69.28641602 50.4792041 -69.32283203 47.3334082 -69.36035156 44.09228516 C-69.37204358 41.5745512 -69.38223419 39.05680963 -69.390625 36.5390625 C-69.41108887 35.25153076 -69.43155273 33.96399902 -69.45263672 32.63745117 C-69.45777579 19.26814573 -65.2999606 10.53832666 -56.0859375 1.0234375 C-40.01781507 -14.02042215 -17.13778878 -11.4559054 0 0 Z " fill="#FDFEFE" transform="translate(282,125)"/>
<path d="M0 0 C2.52262407 2.20115024 4.92389834 4.47100159 7.29296875 6.8359375 C7.91816406 7.44953125 8.54335938 8.063125 9.1875 8.6953125 C30.38075041 31.08457027 28.45911166 61.19138458 28.35546875 89.8359375 C28.35044202 92.26822824 28.34588119 94.70051999 28.34179688 97.1328125 C28.33088818 103.03387954 28.3136887 108.93489709 28.29296875 114.8359375 C23.67296875 114.8359375 19.05296875 114.8359375 14.29296875 114.8359375 C14.27109497 112.34015137 14.27109497 112.34015137 14.2487793 109.79394531 C14.19679194 104.24980949 14.13141963 98.70593532 14.05725384 93.16205215 C14.01283439 89.80609977 13.97506559 86.45038536 13.9465332 83.09423828 C13.91271235 79.22139063 13.860382 75.34915015 13.8046875 71.4765625 C13.79510262 69.69925751 13.79510262 69.69925751 13.7853241 67.88604736 C13.47428323 49.96800438 7.17205374 33.55796048 -5.70703125 20.8359375 C-21.06084238 7.93220262 -37.97556996 3.6457019 -57.70703125 4.8359375 C-73.24903936 6.92949567 -85.81057659 15.22777693 -95.6171875 27.16015625 C-104.45248172 39.7464961 -106.98853743 52.09068664 -107.12109375 67.1796875 C-107.13983407 68.55832033 -107.15940955 69.93694204 -107.17977905 71.31555176 C-107.23080431 74.91900024 -107.270587 78.52248579 -107.30792236 82.12609863 C-107.34814923 85.81332342 -107.39915568 89.50039797 -107.44921875 93.1875 C-107.54562684 100.40354989 -107.62914408 107.61965958 -107.70703125 114.8359375 C-112.65703125 114.8359375 -117.60703125 114.8359375 -122.70703125 114.8359375 C-122.82122771 107.21077657 -122.91242144 99.58594716 -122.96609211 91.96013165 C-122.991887 88.41685726 -123.02671033 84.8742115 -123.08422852 81.33129883 C-123.51605925 53.98843575 -120.67403491 30.90205619 -101.70703125 9.8359375 C-101.11664063 9.15273437 -100.52625 8.46953125 -99.91796875 7.765625 C-92.13635758 -0.67825095 -81.42942306 -7.19355275 -70.70703125 -11.1640625 C-69.959375 -11.44894531 -69.21171875 -11.73382813 -68.44140625 -12.02734375 C-45.37167411 -20.30576804 -18.95289346 -15.15137515 0 0 Z " fill="#FBFBFC" transform="translate(302.70703125,94.1640625)"/>
<path d="M0 0 C4.54777792 1.22440175 6.22994331 2.17543056 9.25 5.875 C9.8667945 9.96772511 9.19818039 13.57059286 6.75732422 16.9284668 C4.73545236 18.98953027 2.6337477 20.87596542 0.4375 22.75 C-0.33424561 23.44053467 -1.10599121 24.13106934 -1.90112305 24.8425293 C-3.4534721 26.22965587 -5.01368784 27.6080341 -6.58203125 28.97705078 C-8.96710578 31.06506535 -11.30116171 33.20118171 -13.62573242 35.35595703 C-15.98670833 37.54402204 -18.37099036 39.70658043 -20.75 41.875 C-22.75123555 43.70698669 -24.75061593 45.54099309 -26.75 47.375 C-29.73751363 50.11412017 -32.72545303 52.8527722 -35.71484375 55.58984375 C-36.2054126 56.03924316 -36.69598145 56.48864258 -37.20141602 56.95166016 C-38.18706598 57.85424154 -39.17322634 58.7562659 -40.15991211 59.65771484 C-42.88743735 62.15306268 -45.59681598 64.66581331 -48.2890625 67.19921875 C-48.87695557 67.749729 -49.46484863 68.30023926 -50.07055664 68.86743164 C-51.20887787 69.93427874 -52.34364847 71.00493047 -53.47436523 72.07983398 C-55.89391807 74.34194368 -57.56695397 75.81398466 -60.75 76.875 C-60.75 77.535 -60.75 78.195 -60.75 78.875 C-62.359375 80.49609375 -62.359375 80.49609375 -64.5 82.3125 C-65.54414063 83.20775391 -65.54414063 83.20775391 -66.609375 84.12109375 C-67.31578125 84.69988281 -68.0221875 85.27867187 -68.75 85.875 C-69.76513672 86.71224609 -69.76513672 86.71224609 -70.80078125 87.56640625 C-73.88663725 89.6380731 -76.13761554 89.38200133 -79.75 88.875 C-84.14086141 85.10205783 -87.29471919 80.53971388 -90.5625 75.8125 C-91.09166016 75.05445068 -91.62082031 74.29640137 -92.16601562 73.51538086 C-95.7067228 68.42696201 -99.19828174 63.30781539 -102.59375 58.12109375 C-104.33250469 55.50351195 -106.10614257 52.92280994 -107.90625 50.34765625 C-108.45796875 49.5477124 -109.0096875 48.74776855 -109.578125 47.92358398 C-110.67142163 46.33871897 -111.77521251 44.76102913 -112.890625 43.19165039 C-115.75124096 39.01085648 -117.67223575 36.13174379 -116.75 30.875 C-114.87199938 27.70587395 -113.47030551 25.43666032 -109.84765625 24.25390625 C-106.79822678 23.9671077 -104.6804954 24.18583009 -102.18359375 26.03515625 C-100.51663489 27.8838 -99.14093896 29.80988145 -97.75 31.875 C-97.2034375 32.66648437 -96.656875 33.45796875 -96.09375 34.2734375 C-94.40445293 36.77159292 -92.74903702 39.28958228 -91.1015625 41.81542969 C-88.17832301 46.26999044 -85.20855632 50.69385572 -82.25 55.125 C-81.01027174 56.98427837 -79.77067737 58.84364604 -78.53125 60.703125 C-77.99564453 61.5065332 -77.46003906 62.30994141 -76.90820312 63.13769531 C-76.52599609 63.71100586 -76.14378906 64.28431641 -75.75 64.875 C-71.60004481 64.04217101 -69.92538734 62.33376818 -67 59.25 C-64.0995027 56.26109857 -61.23098478 53.32895856 -58.0625 50.625 C-54.10376472 47.23408332 -50.3026029 43.68854413 -46.5 40.125 C-40.93688363 34.91331798 -35.34564648 29.73661238 -29.71875 24.59375 C-27.06869317 22.170436 -24.43052822 19.73450374 -21.79589844 17.29443359 C-20.69201781 16.27410209 -19.58593367 15.25614878 -18.47753906 14.24072266 C-15.92656138 11.90296791 -13.41776596 9.5474061 -10.953125 7.1171875 C-4.73295455 1.10435606 -4.73295455 1.10435606 0 0 Z " fill="#3CB64D" transform="translate(309.75,268.125)"/>
</svg>
